<svg xmlns="http://www.w3.org/2000/svg" version="1.1" xmlns:xlink="http://www.w3.org/1999/xlink" xmlns:svgjs="http://svgjs.dev/svgjs" width="2000" height="1500" viewBox="0 0 2000 1500"><rect width="2000" height="1500" fill="#189ab4"></rect><g transform="matrix(0.75,0,0,0.75,249.09219441434482,279.640064617926)"><svg viewBox="0 0 396 248" data-background-color="#189ab4" preserveAspectRatio="xMidYMid meet" height="1252" width="2000" xmlns="http://www.w3.org/2000/svg" xmlns:xlink="http://www.w3.org/1999/xlink"><g id="tight-bounds" transform="matrix(1,0,0,1,0.24033932538708314,0.22711818397694117)"><svg viewBox="0 0 395.52 247.54576363204612" height="247.54576363204612" width="395.52"><g><svg viewBox="0 0 395.52 247.54576363204612" height="247.54576363204612" width="395.52"><g transform="matrix(1,0,0,1,0,161.87384218019466)"><svg viewBox="0 0 395.52 85.67192145185146" height="85.67192145185146" width="395.52"><g id="textblocktransform"><svg viewBox="0 0 395.52 85.67192145185146" height="85.67192145185146" width="395.52" id="textblock"><g><svg viewBox="0 0 395.52 65.64575895223419" height="65.64575895223419" width="395.52"><g transform="matrix(1,0,0,1,0,0)"><svg width="395.52" viewBox="-0.39619604323733865 -35.04297 276.88661152393666 45.955792207521306" height="65.64575895223419" data-palette-color="#d4f1f4"><path d="M35.547-2.306v0c0.236 1.387 0.169 2.737-0.202 4.051-0.379 1.309-1.146 2.522-2.302 3.638-1.163 1.111-2.742 2.104-4.737 2.978-1.996 0.867-4.515 1.56-7.559 2.079v0c-1.715 0.292-3.41 0.449-5.083 0.47-1.68 0.022-3.298-0.084-4.852-0.32-1.555-0.236-3.013-0.596-4.374-1.081-1.367-0.484-2.573-1.07-3.616-1.758v0l1.929-3.321c2.11 1.27 4.464 2.11 7.064 2.52 2.598 0.403 5.369 0.354 8.313-0.148v0c3.266-0.556 5.503-1.401 6.71-2.533 1.199-1.138 1.664-2.498 1.394-4.082v0c-0.209-1.229-0.918-2.173-2.126-2.833-1.208-0.66-3.159-1.176-5.853-1.549v0l-9.714-1.348c-3.207-0.448-5.715-1.292-7.522-2.533-1.807-1.241-2.909-3.024-3.306-5.351v0c-0.204-1.196-0.118-2.401 0.257-3.614 0.375-1.214 1.088-2.349 2.138-3.408 1.049-1.065 2.462-2.005 4.237-2.821 1.775-0.816 3.973-1.448 6.595-1.895v0c1.584-0.27 3.183-0.41 4.798-0.421 1.608-0.01 3.173 0.105 4.695 0.347 1.522 0.241 2.967 0.604 4.334 1.087 1.361 0.485 2.566 1.071 3.616 1.758v0l-1.93 3.321c-2.117-1.269-4.392-2.123-6.826-2.56-2.434-0.431-5.122-0.396-8.067 0.106v0c-2.425 0.413-4.174 1.144-5.246 2.192-1.066 1.047-1.494 2.185-1.285 3.414v0c0.115 0.677 0.327 1.246 0.635 1.708 0.316 0.467 0.777 0.872 1.384 1.215 0.607 0.35 1.379 0.634 2.316 0.853 0.938 0.226 2.09 0.439 3.456 0.639v0l9.664 1.346c3.098 0.439 5.617 1.275 7.558 2.507 1.941 1.232 3.11 3.014 3.507 5.347zM66.34-12.559l1.905 15.382-6.837 0.847-1.906-15.382c-0.291-2.349-1.086-3.963-2.384-4.844-1.298-0.88-3.055-1.183-5.271-0.909v0l-6.352 0.787 2.724 21.982-6.838 0.848-4.236-34.189 6.838-0.847 1.089 8.793 6.352-0.787c4.658-0.577 8.205-0.167 10.642 1.23 2.438 1.404 3.862 3.767 4.274 7.089zM87.833-0.861v0c1.05-0.079 2.019-0.353 2.906-0.822 0.881-0.461 1.636-1.133 2.265-2.016 0.621-0.889 1.088-2.018 1.398-3.385 0.304-1.373 0.384-3.011 0.241-4.912v0c-0.143-1.895-0.469-3.498-0.976-4.811-0.513-1.305-1.144-2.35-1.892-3.136-0.754-0.779-1.602-1.333-2.543-1.663-0.947-0.323-1.946-0.445-2.996-0.365v0c-1.044 0.079-2.009 0.349-2.897 0.811-0.887 0.468-1.642 1.144-2.263 2.027-0.621 0.889-1.088 2.018-1.399 3.385-0.304 1.373-0.384 3.008-0.241 4.902v0c0.144 1.901 0.469 3.508 0.976 4.82 0.513 1.305 1.144 2.35 1.892 3.136 0.748 0.779 1.595 1.33 2.542 1.653 0.948 0.329 1.943 0.455 2.987 0.376zM85.996-25.152v0c2.194-0.166 4.238-0.016 6.131 0.449 1.894 0.465 3.539 1.227 4.936 2.284 1.398 1.064 2.53 2.426 3.398 4.086 0.861 1.666 1.375 3.593 1.54 5.78v0c0.168 2.227-0.049 4.219-0.651 5.976-0.609 1.758-1.525 3.268-2.746 4.53-1.222 1.256-2.734 2.256-4.536 3.001-1.802 0.745-3.8 1.2-5.994 1.366v0c-2.22 0.168-4.271 0.019-6.152-0.447-1.874-0.467-3.509-1.229-4.906-2.287-1.398-1.064-2.53-2.419-3.396-4.065-0.867-1.646-1.384-3.582-1.553-5.81v0c-0.165-2.187 0.056-4.169 0.663-5.947 0.608-1.771 1.523-3.288 2.745-4.55 1.222-1.256 2.724-2.255 4.507-2.998 1.789-0.744 3.794-1.2 6.014-1.368zM120.42-22.458l-6.157 0.185 0.562 18.701 6.157-0.185c1.113-0.033 2.13-0.237 3.053-0.612 0.922-0.375 1.709-0.948 2.36-1.721 0.65-0.773 1.148-1.755 1.492-2.947 0.338-1.197 0.481-2.632 0.431-4.305v0c-0.05-1.666-0.28-3.086-0.689-4.261-0.415-1.168-0.971-2.118-1.666-2.851-0.696-0.733-1.515-1.258-2.459-1.577-0.943-0.318-1.971-0.461-3.084-0.427zM107.272-25.505l13.045-0.392c2.259-0.068 4.324 0.167 6.194 0.704 1.87 0.531 3.478 1.333 4.824 2.407 1.346 1.08 2.396 2.396 3.15 3.947 0.754 1.551 1.16 3.31 1.219 5.275v0c0.059 1.972-0.241 3.756-0.899 5.35-0.659 1.594-1.628 2.97-2.908 4.129-1.279 1.152-2.836 2.05-4.671 2.692-1.835 0.649-3.881 1.007-6.14 1.075v0l-6.158 0.185 0.267 8.856-6.887 0.207zM152.561-34.739l11.936 29.886 0.49 0.014 13.643-29.15 10.576 0.303-0.99 34.436-7.137-0.205 0.792-27.548-0.49-0.015-12.597 27.21-8.367-0.241-11.013-27.888-0.49-0.014-0.792 27.549-7.137-0.205 0.99-34.436zM200.657-6.228v0c-0.275 3.108 1.466 4.828 5.225 5.161v0l6.863 0.608 0.826-9.324-6.863-0.608c-3.759-0.333-5.776 1.054-6.051 4.163zM207.012-13.817l6.863 0.608c0.208-2.351-0.249-4.138-1.372-5.362-1.13-1.218-2.675-1.914-4.634-2.087v0c-1.468-0.13-2.925-0.038-4.372 0.275-1.447 0.32-2.759 0.806-3.934 1.459v0l-1.453-3.091c0.761-0.428 1.589-0.783 2.484-1.065 0.902-0.282 1.822-0.505 2.76-0.669 0.932-0.165 1.855-0.274 2.77-0.327 0.908-0.047 1.753-0.035 2.537 0.034v0c2.092 0.185 3.916 0.591 5.473 1.218 1.557 0.633 2.853 1.457 3.887 2.473 1.028 1.015 1.772 2.175 2.232 3.48 0.459 1.312 0.621 2.735 0.485 4.27v0l-1.433 16.176-13.726-1.216c-4.443-0.394-7.657-1.354-9.644-2.882-1.993-1.528-2.869-3.647-2.629-6.357v0c0.24-2.709 1.475-4.641 3.706-5.795 2.224-1.155 5.557-1.536 10-1.142zM227.808-4.754l1.631-12.696-4.641-0.596 0.438-3.412 4.642 0.596 1.003-7.805 6.834 0.878-1.003 7.805 7.567 0.973-0.438 3.412-7.568-0.973-1.631 12.696c-0.159 1.236-0.155 2.302 0.013 3.198 0.166 0.902 0.45 1.651 0.85 2.246 0.401 0.596 0.895 1.066 1.483 1.411 0.582 0.337 1.217 0.55 1.904 0.638v0c0.972 0.125 1.934 0.091 2.887-0.103 0.952-0.194 1.759-0.429 2.419-0.708v0l1.061 3.363c-1.041 0.364-2.208 0.627-3.5 0.79-1.298 0.163-2.565 0.164-3.801 0.006v0c-3.676-0.472-6.39-1.745-8.14-3.819-1.749-2.08-2.419-4.713-2.01-7.9zM262.109 7.24v0c1.585 0.261 3.111 0.228 4.576-0.098 1.465-0.32 2.944-0.874 4.439-1.662v0l1.465 3.231c-0.709 0.451-1.512 0.836-2.409 1.154-0.904 0.318-1.858 0.552-2.863 0.705-1.004 0.146-2.036 0.222-3.098 0.23-1.069 0.007-2.119-0.075-3.152-0.245v0c-2.302-0.379-4.352-1.023-6.148-1.934-1.796-0.91-3.261-2.046-4.395-3.408-1.139-1.37-1.936-2.957-2.389-4.761-0.453-1.804-0.499-3.808-0.136-6.012v0c0.356-2.164 1.023-4.041 2-5.63 0.976-1.583 2.184-2.847 3.624-3.792 1.432-0.94 3.055-1.568 4.87-1.884 1.815-0.316 3.759-0.304 5.832 0.037v0c1.941 0.319 3.722 0.909 5.343 1.77 1.621 0.868 2.968 1.961 4.042 3.28 1.079 1.326 1.863 2.843 2.352 4.552 0.481 1.714 0.557 3.575 0.227 5.581v0l-0.558 3.394-20.742-3.412c-0.054 2.754 0.559 4.835 1.842 6.242 1.282 1.407 3.041 2.294 5.278 2.662zM263.807-13.682v0c-0.941-0.155-1.845-0.118-2.714 0.111-0.868 0.222-1.664 0.672-2.391 1.35-0.726 0.678-1.378 1.601-1.955 2.769-0.571 1.17-1.016 2.627-1.337 4.371v0l13.597 2.237c0.277-1.684 0.323-3.173 0.137-4.467-0.192-1.295-0.536-2.392-1.03-3.291-0.502-0.893-1.136-1.596-1.903-2.107-0.761-0.51-1.562-0.835-2.404-0.973z" opacity="1" transform="matrix(1,0,0,1,0,0)" fill="#d4f1f4" class="wordmark-text-0" data-fill-palette-color="primary" id="text-0"></path></svg></g></svg></g><g transform="matrix(1,0,0,1,118.31980799999998,72.07380573805482)"><svg viewBox="0 0 158.88038400000002 13.598115713796647" height="13.598115713796647" width="158.88038400000002"><g transform="matrix(1,0,0,1,0,0)"><svg width="158.88038400000002" viewBox="1.25 -37.5 584.14 50" height="13.598115713796647" data-palette-color="#05445e"><path d="M18.6-37.5L26.55-37.5 26.55-34.1 24.65-34.1 15.9-18.45 15.9-3.4 19.15-3.4 19.15 0 8.65 0 8.65-3.4 11.8-3.4 11.8-18.45 3.5-34.1 1.25-34.1 1.25-37.5 9.35-37.5 9.35-34.1 7.55-34.1 13.9-21.9 20.4-34.1 18.6-34.1 18.6-37.5ZM39.95 0L30.7 0Q28.15 0 27.1-1.18 26.05-2.35 26.05-4.45L26.05-4.45 26.05-20.55Q26.05-22.55 26.97-23.78 27.9-25 30.7-25L30.7-25 39.95-25Q42.7-25 43.65-23.78 44.6-22.55 44.6-20.55L44.6-20.55 44.6-4.45Q44.6-2.35 43.55-1.18 42.5 0 39.95 0L39.95 0ZM30.1-21.6L30.1-3.4 40.55-3.4 40.55-21.6 30.1-21.6ZM55.7 0.1L55.7 0.1Q51.8 0.1 51.8-3.75L51.8-3.75 51.8-21.65 48.59-21.65 48.59-25.05 55.84-25.05 55.84-3.4 65.8-9.65 65.8-21.65 63.34-21.65 63.34-25.05 69.84-25.05 69.84-3.4 73-3.4 73 0 65.8 0 65.8-5.6 57.49-0.4Q56.7 0.1 55.7 0.1ZM92.14-25L92.14-25Q96.04-25 96.04-21.15L96.04-21.15 96.04-16.7 91.99-16.7 91.99-21.55 84.19-16.6 84.19-3.4 86.64-3.4 86.64 0 76.99 0 76.99-3.4 80.14-3.4 80.14-21.65 76.99-21.65 76.99-25.05 84.19-25.05 84.19-20.65 90.34-24.5Q91.14-25 92.14-25ZM122.54-26.1L134.94-18.35Q135.94-17.65 136.81-17.13 137.69-16.6 138.34-16L138.34-16Q139.64-14.8 139.64-13.05L139.64-13.05 139.64-4.55Q139.64-2.3 138.04-1.1L138.04-1.1Q136.69 0 134.49 0L134.49 0 118.54 0 118.54-9.25 122.14-9.25 122.14-3.4 135.64-3.4 135.64-13.15 122.54-21.2Q120.79-22.2 119.66-23.28 118.54-24.35 118.54-26.2L118.54-26.2 118.54-32.5Q118.54-35.45 119.94-36.55L119.94-36.55Q121.14-37.5 124.09-37.5L124.09-37.5 139.19-37.5 139.19-28.25 135.59-28.25 135.59-34.1 122.54-34.1 122.54-26.1ZM174.39-25.5L174.39-25.5Q178.29-25.5 178.29-21.65L178.29-21.65 178.29-3.4 181.49-3.4 181.49 0 171.84 0 171.84-3.4 174.24-3.4 174.24-22 165.09-16.3 165.09-3.4 167.54-3.4 167.54 0 158.59 0 158.59-3.4 160.99-3.4 161.04-3.6 161.04-22.05 151.84-16.3 151.84-3.4 154.29-3.4 154.29 0 144.64 0 144.64-3.4 147.79-3.4 147.79-21.65 144.64-21.65 144.64-25 151.84-25 151.84-20.25 159.39-25Q160.19-25.5 161.19-25.5L161.19-25.5Q165.09-25.5 165.09-21.65L165.09-21.65 165.09-20.3 172.59-25Q173.39-25.5 174.39-25.5ZM202.98-3.4L206.13-3.4 206.13 0 188.73 0Q186.18 0 185.28-1L185.28-1Q184.48-1.9 184.48-4.4L184.48-4.4 184.48-6.25Q184.48-8.05 184.93-8.7L184.93-8.7Q185.58-9.65 187.88-11.05L187.88-11.05 198.88-17.9 198.88-21.6 189.08-21.6 189.08-18.7 185.88-18.7 185.88-25 198.38-25Q200.93-25 201.96-23.9 202.98-22.8 202.98-20.7L202.98-20.7 202.98-3.4ZM198.88-3.4L198.88-13.9 188.48-7.4 188.48-3.4 198.88-3.4ZM225.28-25L225.28-25Q229.18-25 229.18-21.15L229.18-21.15 229.18-16.7 225.13-16.7 225.13-21.55 217.33-16.6 217.33-3.4 219.78-3.4 219.78 0 210.13 0 210.13-3.4 213.28-3.4 213.28-21.65 210.13-21.65 210.13-25.05 217.33-25.05 217.33-20.65 223.48-24.5Q224.28-25 225.28-25ZM235.73-34.1L239.63-34.1 239.63-25 243.68-25 243.68-21.4 239.63-21.4 239.63-3.4 244.38-3.4 244.38 0 240.18 0Q237.93 0 236.83-1.18 235.73-2.35 235.73-5.2L235.73-5.2 235.73-21.4 232.03-21.4 232.03-25 235.73-25 235.73-34.1ZM270.37-26.1L282.77-18.35Q283.77-17.65 284.65-17.13 285.52-16.6 286.17-16L286.17-16Q287.47-14.8 287.47-13.05L287.47-13.05 287.47-4.55Q287.47-2.3 285.87-1.1L285.87-1.1Q284.52 0 282.32 0L282.32 0 266.37 0 266.37-9.25 269.97-9.25 269.97-3.4 283.47-3.4 283.47-13.15 270.37-21.2Q268.62-22.2 267.5-23.28 266.37-24.35 266.37-26.2L266.37-26.2 266.37-32.5Q266.37-35.45 267.77-36.55L267.77-36.55Q268.97-37.5 271.92-37.5L271.92-37.5 287.02-37.5 287.02-28.25 283.42-28.25 283.42-34.1 270.37-34.1 270.37-26.1ZM313.67-3.4L316.87-3.4 316.87 0 307.22 0 307.22-3.4 309.62-3.4 309.62-21.9 299.67-15.65 299.67-3.4 302.12-3.4 302.12 0 292.47 0 292.47-3.4 295.62-3.4 295.62-34.1 292.47-34.1 292.47-37.5 299.67-37.5 299.67-19.7 307.97-24.9Q308.92-25.5 310.22-25.5 311.52-25.5 312.6-24.48 313.67-23.45 313.67-21.55L313.67-21.55 313.67-3.4ZM334.77 0L325.52 0Q322.97 0 321.92-1.18 320.87-2.35 320.87-4.45L320.87-4.45 320.87-20.55Q320.87-22.55 321.79-23.78 322.72-25 325.52-25L325.52-25 334.77-25Q337.52-25 338.47-23.78 339.42-22.55 339.42-20.55L339.42-20.55 339.42-4.45Q339.42-2.35 338.37-1.18 337.32 0 334.77 0L334.77 0ZM324.92-21.6L324.92-3.4 335.37-3.4 335.37-21.6 324.92-21.6ZM350.67-15.3L350.67-3.4 361.27-3.4 361.27-21.95 350.67-15.3ZM343.47 12.5L343.47 9.1 346.56 9.1 346.56-21.55 343.42-21.55 343.42-25 350.67-25 350.67-19.3 359.31-24.75Q360.52-25.5 361.87-25.5 363.22-25.5 364.24-24.68 365.27-23.85 365.27-22.25L365.27-22.25 365.27-4.7Q365.27-2.4 364.62-1.55L364.62-1.55Q363.37 0 360.77 0L360.77 0 350.67 0 350.67 9.1 353.97 9.1 353.97 12.5 343.47 12.5ZM377.01-15.3L377.01-3.4 387.61-3.4 387.61-21.95 377.01-15.3ZM369.81 12.5L369.81 9.1 372.91 9.1 372.91-21.55 369.76-21.55 369.76-25 377.01-25 377.01-19.3 385.66-24.75Q386.86-25.5 388.21-25.5 389.56-25.5 390.59-24.68 391.61-23.85 391.61-22.25L391.61-22.25 391.61-4.7Q391.61-2.4 390.96-1.55L390.96-1.55Q389.71 0 387.11 0L387.11 0 377.01 0 377.01 9.1 380.31 9.1 380.31 12.5 369.81 12.5ZM403.86-25L403.86-3.4 407.11-3.4 407.11 0 396.61 0 396.61-3.4 399.76-3.4 399.76-21.6 396.61-21.6 396.61-25 403.86-25ZM401.81-34.2Q402.86-34.2 403.59-33.43 404.31-32.65 404.31-31.58 404.31-30.5 403.59-29.78 402.86-29.05 401.79-29.05 400.71-29.05 399.99-29.78 399.26-30.5 399.26-31.58 399.26-32.65 400.01-33.43 400.76-34.2 401.81-34.2ZM428.41-25.5L428.41-25.5Q432.31-25.5 432.31-21.65L432.31-21.65 432.31-3.4 435.51-3.4 435.51 0 425.86 0 425.86-3.4 428.26-3.4 428.26-22 418.31-15.75 418.31-3.4 420.76-3.4 420.76 0 411.11 0 411.11-3.4 414.26-3.4 414.26-21.65 411.11-21.65 411.11-25 418.31-25 418.31-19.8 426.61-25Q427.41-25.5 428.41-25.5ZM461.66-21.6L458.51-21.6 458.51 6.65Q458.51 8.75 457.48 9.85 456.46 10.95 453.91 10.95L453.91 10.95 441.81 10.95 441.81 4.15 445.21 4.15 445.21 7.5 454.41 7.5 454.41-5.55 445.86-0.15Q444.76 0.5 443.43 0.5 442.11 0.5 441.06-0.53 440.01-1.55 440.01-3.05L440.01-3.05 440.01-20.6Q440.01-23.05 440.66-23.8L440.66-23.8Q441.76-25 444.26-25L444.26-25 461.66-25 461.66-21.6ZM454.41-9.6L454.41-21.6 443.91-21.6 443.91-3 454.41-9.6ZM487.55-34.1L484.4-34.1 484.4-37.5 492.1-37.5 502.7-15.65 513.2-37.5 520.9-37.5 520.9-34.1 517.75-34.1 517.75-3.4 520.9-3.4 520.9 0 510.4 0 510.4-3.4 513.65-3.4 513.65-29.15 504.2-9.7 501.05-9.7 491.65-29.3 491.65-3.4 494.9-3.4 494.9 0 484.4 0 484.4-3.4 487.55-3.4 487.55-34.1ZM543.65-3.4L546.8-3.4 546.8 0 529.4 0Q526.85 0 525.95-1L525.95-1Q525.15-1.9 525.15-4.4L525.15-4.4 525.15-6.25Q525.15-8.05 525.6-8.7L525.6-8.7Q526.25-9.65 528.55-11.05L528.55-11.05 539.55-17.9 539.55-21.6 529.75-21.6 529.75-18.7 526.55-18.7 526.55-25 539.05-25Q541.6-25 542.62-23.9 543.65-22.8 543.65-20.7L543.65-20.7 543.65-3.4ZM539.55-3.4L539.55-13.9 529.15-7.4 529.15-3.4 539.55-3.4ZM554.5-34.1L558.39-34.1 558.39-25 562.44-25 562.44-21.4 558.39-21.4 558.39-3.4 563.14-3.4 563.14 0 558.94 0Q556.69 0 555.59-1.18 554.5-2.35 554.5-5.2L554.5-5.2 554.5-21.4 550.79-21.4 550.79-25 554.5-25 554.5-34.1ZM567.14-3.65L567.14-20.1Q567.14-25.05 572.29-25.05L572.29-25.05 580.74-25.05Q583.19-25.05 584.29-24.1 585.39-23.15 585.39-20.6L585.39-20.6 585.39-15.95 571.14-6.95 571.14-3.4 581.44-3.4 581.44-6.3 585.39-6.3 585.39-3.65Q585.39-2.15 584.47-1.07 583.54 0 581.39 0L581.39 0 571.14 0Q568.99 0 568.07-1.07 567.14-2.15 567.14-3.65L567.14-3.65ZM571.14-21.6L571.14-11 581.39-17.45 581.39-21.6 571.14-21.6Z" opacity="1" transform="matrix(1,0,0,1,0,0)" fill="#05445e" class="slogan-text-1" data-fill-palette-color="secondary" id="text-1"></path></svg></g></svg></g></svg></g></svg></g><g transform="matrix(1,0,0,1,128.9551159727148,0)"><svg viewBox="0 0 137.60976805457042 138.61716890909565" height="138.61716890909565" width="137.60976805457042"><g><svg xmlns="http://www.w3.org/2000/svg" xmlns:xlink="http://www.w3.org/1999/xlink" version="1.1" x="0" y="0" viewBox="3.6930000000000005 3.354 92.61399999999999 93.292" enable-background="new 0 0 100 100" xml:space="preserve" height="138.61716890909565" width="137.60976805457042" class="icon-icon-0" data-fill-palette-color="accent" id="icon-0"><g fill="#05445e" data-fill-palette-color="accent"><circle cx="10.839" cy="10.5" r="7.1" fill="#05445e" data-fill-palette-color="accent"></circle><path d="M19.341 3.354c1.625 1.932 2.608 4.423 2.608 7.146s-0.983 5.214-2.608 7.146h76.966V3.354H19.341z" fill="#05445e" data-fill-palette-color="accent"></path><circle cx="10.839" cy="30.25" r="7.1" fill="#05445e" data-fill-palette-color="accent"></circle><path d="M21.949 30.25c0 2.723-0.983 5.214-2.608 7.146h76.966V23.104H19.341C20.966 25.036 21.949 27.527 21.949 30.25z" fill="#05445e" data-fill-palette-color="accent"></path><circle cx="10.839" cy="50" r="7.1" fill="#05445e" data-fill-palette-color="accent"></circle><path d="M21.949 50c0 2.723-0.983 5.213-2.608 7.146h76.966V42.854H19.341C20.966 44.786 21.949 47.277 21.949 50z" fill="#05445e" data-fill-palette-color="accent"></path><circle cx="10.839" cy="69.75" r="7.1" fill="#05445e" data-fill-palette-color="accent"></circle><path d="M21.949 69.75c0 2.723-0.983 5.213-2.608 7.146h76.966V62.604H19.341C20.966 64.536 21.949 67.027 21.949 69.75z" fill="#05445e" data-fill-palette-color="accent"></path><circle cx="10.839" cy="89.5" r="7.1" fill="#05445e" data-fill-palette-color="accent"></circle><path d="M21.949 89.5c0 2.723-0.983 5.213-2.608 7.146h76.966V82.354H19.341C20.966 84.286 21.949 86.777 21.949 89.5z" fill="#05445e" data-fill-palette-color="accent"></path></g></svg></g></svg></g><g></g></svg></g><defs></defs></svg><rect width="395.52" height="247.54576363204612" fill="none" stroke="none" visibility="hidden"></rect></g></svg></g></svg>